<svg width="160" height="42" viewBox="0 0 160 42" fill="none" xmlns="http://www.w3.org/2000/svg">
<path d="M156.687 33.1689H3.23828V33.6114H156.687V33.1689Z" fill="#0F0F0E" stroke="#0D0D0C" stroke-width="0.375"/>
<path d="M156.686 39.5283H3.23828V40.0005H156.686V39.5283Z" fill="#0F0F0E" stroke="#0D0D0C" stroke-width="0.375"/>
<path d="M156.688 36.2241H3.23828V36.6959H156.688V36.2241Z" fill="#0F0F0E" stroke="#0D0D0C" stroke-width="0.375"/>
<path d="M66.2554 33.3045L80.3077 12.0418L72.8024 1.05957H78.448L83.1749 7.90053L87.9132 1.05957H93.3877L85.8681 12.0367L93.8272 23.67H88.3378L83.4512 16.2223L72.0669 33.3045H66.2554Z" fill="#0F0F0E"/>
<path d="M47.8115 23.9171H42.6904L45.1777 6.63169H41.3284L38.6377 23.9171H33.4896L35.9739 6.63169H32.0945L29.4089 23.9171H24.1167L27.6125 1.06982H47.2357C48.2548 1.06982 48.6082 1.26732 49.5452 1.66038C50.697 2.14756 50.653 2.78556 50.653 3.57284C50.653 3.68895 50.847 3.79348 50.8206 3.88567L47.8115 23.9171Z" fill="#0F0F0E"/>
<path d="M70.5879 24.0307H65.6108L66.6228 15.3988H55.4474L54.4162 24.0307H49.4678L52.1464 4.05713C52.2802 3.12636 52.8816 2.38074 53.9513 1.82181C54.8206 1.35662 55.7679 1.12402 56.7934 1.12402H69.4204C70.3121 1.12402 71.1366 1.32075 71.8953 1.71419C72.8307 2.17862 73.2994 2.82857 73.2994 3.6633C73.2994 3.7335 73.288 3.84961 73.2659 4.01084L70.5879 24.0307ZM67.2696 10.7808L68.0034 5.77094H56.8733L56.1675 10.7808H67.2696Z" fill="#0F0F0E"/>
<path opacity="0.76" d="M94.3648 1L86.7583 11.9806L94.9095 23.9063H100.729L92.484 11.9749L100.004 1H94.3648Z" fill="#0F0F0E"/>
<path opacity="0.47" d="M100.762 1L93.1558 11.9806L101.306 23.9063H107.127L98.8823 11.9749L106.401 1H100.762Z" fill="#0F0F0E"/>
<path d="M87.9566 1L80.3501 11.9806L88.5016 23.9063H94.3212L86.0764 11.9749L93.596 1H87.9566Z" fill="#0F0F0E"/>
<path opacity="0.23" d="M107.149 1L99.543 11.9806L107.694 23.9063H113.514L105.27 11.9749L112.789 1H107.149Z" fill="#0F0F0E"/>
<path d="M121.35 29.5885C121.053 29.7721 120.418 29.9558 119.916 29.9558C119.127 29.9558 118.532 29.619 118.071 28.9309C117.477 28.0742 117.159 26.5444 117.18 24.77C117.21 21.0222 118.645 19.4619 120.11 19.4619C120.633 19.4619 121.022 19.6147 121.237 19.7678L121.002 21.4963C120.807 21.3435 120.551 21.2668 120.213 21.2668C119.301 21.2668 118.573 22.1998 118.573 24.8923C118.573 27.3702 119.219 28.2578 119.844 28.2578C119.967 28.2578 120.059 28.2423 120.11 28.2119V25.7185H119.496V24.0814H121.35V29.5885Z" fill="#0F0F0E"/>
<path d="M122.354 19.7064C122.774 19.5841 123.307 19.5073 123.819 19.5073C124.557 19.5073 125.213 19.6601 125.664 20.2722C126.084 20.8381 126.207 21.5266 126.207 22.4138C126.207 23.5151 125.848 24.5095 125.141 24.999V25.0299C125.613 25.3053 125.848 25.9629 125.981 27.0642C126.115 28.2114 126.299 29.4812 126.422 29.8635H125.018C124.936 29.573 124.783 28.5327 124.68 27.4006C124.557 26.1153 124.342 25.7485 123.891 25.7485H123.696V29.8635H122.354V19.7064ZM123.696 24.204H123.932C124.516 24.204 124.854 23.5004 124.854 22.5978C124.854 21.7261 124.618 21.0989 124.014 21.068C123.901 21.068 123.768 21.0834 123.696 21.1293V24.204Z" fill="#0F0F0E"/>
<path d="M131.248 24.5256C131.248 28.4111 130.326 29.9868 129.014 29.9868C127.446 29.9868 126.832 27.5085 126.832 24.6788C126.832 21.8641 127.579 19.4316 129.107 19.4316C130.777 19.4313 131.248 22.1696 131.248 24.5256ZM128.225 24.7088C128.225 27.0495 128.522 28.2425 129.065 28.2425C129.629 28.2425 129.844 26.7127 129.844 24.617C129.844 22.8118 129.66 21.1752 129.055 21.1752C128.522 21.1752 128.225 22.4909 128.225 24.7088Z" fill="#0F0F0E"/>
<path d="M133.4 19.5547V26.2549C133.4 27.7692 133.707 28.2283 134.056 28.2283C134.445 28.2283 134.722 27.8151 134.722 26.2549V19.5547H136.064V25.9031C136.064 28.5496 135.398 29.9876 134.066 29.9876C132.621 29.9876 132.058 28.5037 132.058 25.9185V19.5547H133.4Z" fill="#0F0F0E"/>
<path d="M137.221 19.7064C137.6 19.5841 138.112 19.5073 138.624 19.5073C139.424 19.5073 140.049 19.6755 140.5 20.3027C140.909 20.8381 141.094 21.6948 141.094 22.5669C141.094 23.6836 140.868 24.4636 140.51 25.0449C140.079 25.718 139.383 26.0239 138.829 26.0239C138.737 26.0239 138.645 26.0239 138.563 26.0239V29.8635H137.221V19.7064ZM138.563 24.3876C138.625 24.4181 138.696 24.4181 138.778 24.4181C139.455 24.4181 139.762 23.6991 139.762 22.7355C139.762 21.8329 139.516 21.1293 138.891 21.1293C138.768 21.1293 138.645 21.1602 138.563 21.2057V24.3876H138.563Z" fill="#0F0F0E"/>
</svg>
